<?xml version="1.0" encoding="UTF-8" standalone="no"?>
<svg
   xmlns:dc="http://purl.org/dc/elements/1.1/"
   xmlns:cc="http://creativecommons.org/ns#"
   xmlns:rdf="http://www.w3.org/1999/02/22-rdf-syntax-ns#"
   xmlns:svg="http://www.w3.org/2000/svg"
   xmlns="http://www.w3.org/2000/svg"
   xmlns:sodipodi="http://sodipodi.sourceforge.net/DTD/sodipodi-0.dtd"
   xmlns:inkscape="http://www.inkscape.org/namespaces/inkscape"
   sodipodi:docname="erlenmeyer.svg"
   inkscape:version="1.0 (4035a4fb49, 2020-05-01)"
   id="svg864"
   version="1.1"
   viewBox="0 0 211.58524 246.68446"
   height="246.68446mm"
   width="211.58524mm">
  <defs
     id="defs858" />
  <sodipodi:namedview
     inkscape:window-maximized="1"
     inkscape:window-y="-8"
     inkscape:window-x="-8"
     inkscape:window-height="1057"
     inkscape:window-width="1920"
     fit-margin-bottom="0"
     fit-margin-right="0"
     fit-margin-left="0"
     fit-margin-top="0"
     showgrid="false"
     inkscape:document-rotation="0"
     inkscape:current-layer="layer1"
     inkscape:document-units="mm"
     inkscape:cy="382.64615"
     inkscape:cx="480.37701"
     inkscape:zoom="0.7134009"
     inkscape:pageshadow="2"
     inkscape:pageopacity="0.0"
     borderopacity="1.0"
     bordercolor="#666666"
     pagecolor="#ffffff"
     id="base" />
  <metadata
     id="metadata861">
    <rdf:RDF>
      <cc:Work
         rdf:about="">
        <dc:format>image/svg+xml</dc:format>
        <dc:type
           rdf:resource="http://purl.org/dc/dcmitype/StillImage" />
        <dc:title></dc:title>
      </cc:Work>
    </rdf:RDF>
  </metadata>
  <g
     transform="translate(-33.896898,-14.795177)"
     id="layer1"
     inkscape:groupmode="layer"
     inkscape:label="Laag 1">
    <path
       style="fill:#48dbfb;stroke-width:1;fill-opacity:1"
       d="m 63.625447,261.33218 c -5.058774,-0.35022 -12.570507,-2.33223 -15.982592,-4.2171 -5.32436,-2.94123 -9.21596,-7.09382 -11.31729,-12.07627 -3.01453,-7.14772 -3.23145,-15.62334 -0.60224,-23.53062 1.43224,-4.30741 0.65104,-3.07386 22.248171,-35.13071 4.36275,-6.47568 9.160138,-13.67896 10.660865,-16.00729 1.500727,-2.32834 5.144741,-7.98381 8.097811,-12.56771 2.95307,-4.58391 6.675837,-10.35844 8.27282,-12.83229 9.427025,-14.60323 10.380982,-16.20062 12.7987,-21.43125 2.238838,-4.84365 4.320998,-11.79328 5.365038,-17.90688 0.99947,-5.852648 1.11295,-10.218228 1.01322,-38.978547 -0.0943,-27.18278 -0.10234,-27.542637 -0.66548,-29.656936 -0.84917,-3.18811 -1.9399,-5.75292 -4.940166,-11.616471 -3.036289,-5.933964 -3.720634,-8.099006 -2.937703,-9.293911 0.235389,-0.359248 0.749173,-0.796692 1.141746,-0.972098 0.547238,-0.244512 10.539783,-0.31892 42.829263,-0.31892 h 42.1155 l 0.747,0.563891 c 0.68948,0.520464 0.74474,0.693625 0.7176,2.248492 -0.0278,1.591239 -0.17733,1.972264 -2.69859,6.875153 -3.08851,6.005974 -4.31774,8.861894 -5.13469,11.929608 -0.58271,2.188102 -0.58495,2.288493 -0.6776,30.373484 -0.0969,29.36822 0.0167,33.862295 1.01028,39.952135 0.94402,5.78636 2.75664,12.01939 5.02746,17.28788 1.74036,4.03774 3.96038,7.67831 11.81529,19.37561 4.195,6.24709 10.58128,15.76365 14.19172,21.14792 3.61044,5.38427 9.96479,14.84974 14.12079,21.03438 21.99523,32.73165 21.44016,31.85288 22.81253,36.11562 2.62523,8.1543 2.41859,16.19596 -0.6001,23.35356 -2.14002,5.07419 -6.55023,9.71495 -11.69746,12.30894 -3.6808,1.85497 -9.60595,3.38398 -15.06731,3.88816 -2.67053,0.24655 -149.15143,0.32538 -152.664583,0.0822 z m 152.696073,-17.9393 c 4.70618,-0.7995 8.65282,-3.53172 10.49872,-7.26817 0.77345,-1.5656 0.84688,-1.93264 0.84688,-4.23333 0,-1.89884 -0.15154,-3.00156 -0.61543,-4.47851 -0.67872,-2.16087 3.40521,4.01745 -48.15314,-72.84777 -9.79058,-14.59618 -10.10369,-15.09866 -12.73895,-20.44283 -4.25637,-8.63173 -6.75019,-16.9213 -8.26638,-27.47786 -0.56391,-3.92629 -0.57743,-4.71984 -0.66661,-39.131001 l -0.091,-35.12344 H 139.43034 121.7251 l -0.098,34.858856 c -0.0873,31.066357 -0.14701,35.204285 -0.54849,38.033855 -1.50338,10.59553 -4.2839,19.7146 -8.79356,28.83959 -2.65149,5.36511 -2.44359,5.03389 -17.437607,27.78125 -38.27601,58.06838 -41.366582,62.77755 -41.947546,63.91633 -1.437674,2.81807 -1.709444,7.84757 -0.562531,10.41051 1.64895,3.68481 5.384353,6.20626 10.590088,7.14845 1.686671,0.30527 14.344414,0.36969 76.532606,0.38951 65.284,0.0208 74.8027,-0.0257 76.86146,-0.37544 z M 69.372779,234.78384 c -2.868713,-1.43351 -4.334727,-3.74274 -4.354232,-6.85869 -0.01529,-2.44292 0.363545,-3.16762 6.504794,-12.4435 2.84216,-4.29287 8.731116,-13.22256 13.086562,-19.84376 4.355444,-6.62119 12.055811,-18.31908 17.111927,-25.99531 l 9.19293,-13.95677 h 28.50102 28.50101 l 22.8152,34.2249 c 12.54835,18.8237 22.9967,34.74831 23.21854,35.38803 0.22184,0.63971 0.40441,1.86504 0.4057,2.72295 0.005,3.0508 -2.45817,6.40836 -5.33209,7.26941 -0.73024,0.21878 -19.36033,0.29888 -69.51786,0.29888 H 70.986007 Z M 190.47478,217.74011 c 1.06625,-0.55138 2.08526,-1.85629 2.28626,-2.92771 0.37862,-2.01822 0.60118,-1.62968 -11.31229,-19.74874 -3.19252,-4.85547 -3.63769,-5.2466 -5.97156,-5.2466 -0.9229,0 -1.56838,0.17589 -2.18464,0.59531 -1.48185,1.00855 -1.96227,1.88213 -1.97252,3.58683 -0.0104,1.72733 -0.76276,0.45032 9.03055,15.32772 3.62261,5.50323 5.34382,7.88925 5.96379,8.26724 1.04505,0.63715 3.07296,0.70829 4.16041,0.14595 z m -19.95916,-32.11847 c 0.43722,-0.25535 1.06095,-0.93389 1.38606,-1.50787 1.92063,-3.39083 -1.06578,-7.43217 -4.76792,-6.45213 -3.96822,1.05048 -4.54533,6.21459 -0.90011,8.05464 1.53553,0.77511 2.8422,0.74623 4.28197,-0.0946 z"
       id="path847" />
  </g>
</svg>
