<?xml version="1.0" encoding="UTF-8" standalone="no"?>
<svg
   xmlns:dc="http://purl.org/dc/elements/1.1/"
   xmlns:cc="http://creativecommons.org/ns#"
   xmlns:rdf="http://www.w3.org/1999/02/22-rdf-syntax-ns#"
   xmlns:svg="http://www.w3.org/2000/svg"
   xmlns="http://www.w3.org/2000/svg"
   xmlns:sodipodi="http://sodipodi.sourceforge.net/DTD/sodipodi-0.dtd"
   xmlns:inkscape="http://www.inkscape.org/namespaces/inkscape"
   sodipodi:docname="viinum_logo.svg"
   inkscape:version="1.0 (4035a4fb49, 2020-05-01)"
   id="svg1355"
   version="1.1"
   viewBox="0 0 100 100"
   height="100mm"
   width="100mm">
  <defs
     id="defs1349" />
  <sodipodi:namedview
     inkscape:window-maximized="1"
     inkscape:window-y="-8"
     inkscape:window-x="-8"
     inkscape:window-height="1057"
     inkscape:window-width="1920"
     fit-margin-bottom="0"
     fit-margin-right="0"
     fit-margin-left="0"
     fit-margin-top="0"
     showgrid="false"
     inkscape:document-rotation="0"
     inkscape:current-layer="layer1"
     inkscape:document-units="mm"
     inkscape:cy="84.431295"
     inkscape:cx="256.6209"
     inkscape:zoom="0.95731516"
     inkscape:pageshadow="2"
     inkscape:pageopacity="0.0"
     borderopacity="1.0"
     bordercolor="#666666"
     pagecolor="#ffffff"
     id="base" />
  <metadata
     id="metadata1352">
    <rdf:RDF>
      <cc:Work
         rdf:about="">
        <dc:format>image/svg+xml</dc:format>
        <dc:type
           rdf:resource="http://purl.org/dc/dcmitype/StillImage" />
        <dc:title></dc:title>
      </cc:Work>
    </rdf:RDF>
  </metadata>
  <g
     transform="translate(14.974071,12.712727)"
     id="layer1"
     inkscape:groupmode="layer"
     inkscape:label="Laag 1">
    <path
       style="opacity:0.05;fill:#c8c8c8;fill-opacity:1;fill-rule:nonzero;stroke:none;stroke-width:0.999995;stroke-linecap:square;stroke-miterlimit:4;stroke-dasharray:none;stroke-dashoffset:0;stroke-opacity:1;paint-order:normal"
       d="M 14.510392,3.3173476 A 2.9519984,2.9519984 0 0 0 11.558466,6.269268 2.9519984,2.9519984 0 0 0 14.510392,9.2214797 2.9519984,2.9519984 0 0 0 15.340264,9.1005668 L 21.77441,21.760907 a 2.9519984,2.9519984 0 0 0 -1.016217,2.223887 2.9519984,2.9519984 0 0 0 2.951922,2.951936 2.9519984,2.9519984 0 0 0 0.655479,-0.07739 l 7.119202,14.008556 a 2.9519984,2.9519984 0 0 0 -0.535706,1.693023 2.9519984,2.9519984 0 0 0 2.951926,2.951938 2.9519984,2.9519984 0 0 0 2.952207,-2.951938 2.9519984,2.9519984 0 0 0 -0.536559,-1.691316 l 7.120069,-14.010264 a 2.9519984,2.9519984 0 0 0 0.655477,0.07739 2.9519984,2.9519984 0 0 0 2.951925,-2.951936 2.9519984,2.9519984 0 0 0 -1.016222,-2.223887 L 52.462066,9.1005668 A 2.9519984,2.9519984 0 0 0 53.291937,9.2214797 2.9519984,2.9519984 0 0 0 56.243858,6.269268 2.9519984,2.9519984 0 0 0 53.291937,3.3173476 2.9519984,2.9519984 0 0 0 50.340011,6.269268 2.9519984,2.9519984 0 0 0 50.399471,6.8581779 L 37.148246,12.602711 a 4.3405422,4.3405422 0 0 0 -3.24723,-1.468286 4.3405422,4.3405422 0 0 0 -3.248371,1.467719 L 17.402854,6.8581779 A 2.9519984,2.9519984 0 0 0 17.462311,6.269268 2.9519984,2.9519984 0 0 0 14.510392,3.3173476 Z m 2.277953,4.8270386 12.810538,6.7889088 a 4.3405422,4.3405422 0 0 0 -0.03816,0.541685 4.3405422,4.3405422 0 0 0 0.17126,1.200282 l -4.58833,4.73003 a 2.9519984,2.9519984 0 0 0 -1.43358,-0.372413 2.9519984,2.9519984 0 0 0 -0.601991,0.06544 L 16.619612,8.3307303 a 2.9519984,2.9519984 0 0 0 0.168706,-0.1863441 z m 34.225638,0 a 2.9519984,2.9519984 0 0 0 0.168705,0.1863441 L 44.694201,21.098309 a 2.9519984,2.9519984 0 0 0 -0.601991,-0.06543 2.9519984,2.9519984 0 0 0 -1.433576,0.372413 L 38.069156,16.674127 A 4.3405422,4.3405422 0 0 0 38.24156,15.474981 4.3405422,4.3405422 0 0 0 38.2023,14.933862 Z M 31.257488,18.910543 a 4.3405422,4.3405422 0 0 0 1.257464,0.67312 l 0.686772,20.11268 a 2.9519984,2.9519984 0 0 0 -0.544807,0.191171 L 25.687076,26.172569 a 2.9519984,2.9519984 0 0 0 0.974964,-2.187775 2.9519984,2.9519984 0 0 0 -0.282504,-1.252908 z m 5.289616,0.0016 4.875684,3.819635 a 2.9519984,2.9519984 0 0 0 -0.282505,1.252913 2.9519984,2.9519984 0 0 0 0.974965,2.187777 l -6.970134,13.714973 a 2.9519984,2.9519984 0 0 0 -0.557899,-0.194309 l 0.699006,-20.110407 a 4.3405422,4.3405422 0 0 0 1.260883,-0.670553 z"
       id="rect2266-4-8-1-8-8-1-5-2-4"
       inkscape:connector-curvature="0" />
  </g>
</svg>
